# xmcd
#
# Track frame offsets:
#	150
#	12881
#	28379
#	44182
#	58913
#	73143
#	84008
#	101106
#	116834
#	132883
#	150078
#	163600
#	182146
#	199251
#	215372
#	233247
#	249805
#	267365
#	288738
#	303798
#	319740
#	333267
#
# Disc length: 4672 seconds
#
# Revision: 0
# Processed by: cddbd v1.5.2PL0 Copyright (c) Steve Scherf et al.
# Submitted via: dBpowerAMP V4.0
#
DISCID=3e123e16
DTITLE=Various Artist - ERG Nu Country Traxx Vol. 219 CAN
DYEAR=2012
DGENRE=Country
TTITLE0=Toby Keith - I Like Girls That Drink Beer
TTITLE1=Dierks Bentley - Tip It On Back
TTITLE2=Florida Georgia Line - Cruise
TTITLE3=Kira Isabella - A Little More Work
TTITLE4=Eli Young Band - Say Goodnight
TTITLE5=Maggie Rose - I Ain't Your Mama
TTITLE6=Brantley Gilbert - Kick It In The Sticks
TTITLE7=Mavericks, The  - Born To Be Blue
TTITLE8=Lost Trailers, The  - American Beauty
TTITLE9=Kelleigh Bannen - Sorry On The Rocks
TTITLE10=Deric Ruttan - My Kind Of Freedom
TTITLE11=Sara Evans - Anywhere
TTITLE12=Colt Ford ft. Jake Owen - Back
TTITLE13=Steve Holy  - Hauled Off And Kissed Me
TTITLE14=Dallas Smith - Jumped Right In
TTITLE15=Shane Chisholm - This Flight Tonight
TTITLE16=Corb Lund - September
TTITLE17=Paul Brandt - Now
TTITLE18=Victoria Banks - Barefoot Girl
TTITLE19=Todd Richard - Wild Ride
TTITLE20=Don Murdock - I Love You Still
TTITLE21=Dave Green  - Big Truck N Driver
EXTD=
EXTT0=
EXTT1=
EXTT2=
EXTT3=
EXTT4=
EXTT5=
EXTT6=
EXTT7=
EXTT8=
EXTT9=
EXTT10=
EXTT11=
EXTT12=
EXTT13=
EXTT14=
EXTT15=
EXTT16=
EXTT17=
EXTT18=
EXTT19=
EXTT20=
EXTT21=
PLAYORDER=
